<svg width="17962" height="7859" viewBox="0 0 17962 7859" fill="none" xmlns="http://www.w3.org/2000/svg">
<path d="M1877.89 6423.92V4012.89H1189V3311.27L1877.89 3132.68V2673.43C1877.89 2401.29 1931.04 2184.42 2037.35 2022.84C2147.92 1861.25 2298.88 1744.32 2490.23 1672.03C2685.85 1595.49 2906.97 1557.22 3153.61 1557.22C3285.43 1557.22 3421.51 1569.97 3561.84 1595.49C3702.17 1616.75 3846.75 1646.51 3995.59 1684.78L4072.13 1710.3L3931.8 2475.7L3829.74 2462.95C3761.7 2454.44 3697.92 2448.06 3638.38 2443.81C3583.1 2435.31 3532.07 2431.06 3485.3 2431.06C3306.7 2431.06 3174.87 2458.69 3089.82 2513.97C3009.03 2565 2968.63 2652.17 2968.63 2775.49V3132.68H3931.8V4012.89H2962.25V6423.92H1877.89ZM4454.84 6423.92V3132.68H5539.21V6423.92H4454.84ZM5003.4 2673.43C4884.34 2673.43 4771.65 2643.67 4665.34 2584.14C4563.28 2524.6 4482.49 2445.94 4422.95 2348.14C4363.42 2250.33 4333.65 2144.03 4333.65 2029.22C4333.65 1910.15 4363.42 1803.85 4422.95 1710.3C4482.49 1612.5 4563.28 1533.83 4665.34 1474.3C4771.65 1414.77 4884.34 1385 5003.4 1385C5126.72 1385 5239.41 1414.77 5341.47 1474.3C5443.53 1533.83 5524.32 1612.5 5583.86 1710.3C5643.39 1803.85 5673.16 1910.15 5673.16 2029.22C5673.16 2144.03 5643.39 2250.33 5583.86 2348.14C5524.32 2445.94 5443.53 2524.6 5341.47 2584.14C5239.41 2643.67 5126.72 2673.43 5003.4 2673.43ZM5928 6423.92L7088.91 4746.41L6049.19 3132.68H7299.4L7816.07 3929.98L8345.49 3132.68H9563.8L8460.31 4708.14L9595.7 6423.92H8313.6L7752.28 5530.95L7152.69 6423.92H5928ZM12701.8 6474.95C12523.2 6474.95 12353.1 6443.06 12191.5 6379.28C12029.9 6315.49 11898.1 6215.56 11796 6079.49C11694 5939.17 11642.9 5764.82 11642.9 5556.46C11642.9 5275.81 11728 5061.08 11898.1 4912.25C12072.4 4759.17 12338.2 4644.36 12695.4 4567.81L13633.1 4357.33V4344.57C13637.3 4208.5 13590.5 4108.57 13492.7 4044.79C13394.9 3976.75 13233.3 3942.73 13007.9 3942.73C12876.1 3942.73 12740 3951.24 12599.7 3968.25C12459.4 3981 12321.2 4000.14 12185.1 4025.65L12019.3 4057.54L11859.8 3387.81L12063.9 3311.27C12272.3 3238.98 12476.4 3181.58 12676.3 3139.06C12876.1 3096.53 13073.9 3075.27 13269.5 3075.27C13703.2 3075.27 14051.9 3185.83 14315.6 3406.95C14579.2 3623.81 14711 3944.86 14711 4370.08V5416.14C14711 5522.45 14738.7 5596.86 14794 5639.38C14853.5 5681.91 14964.1 5713.8 15125.6 5735.06L15055.5 6423.92C14995.9 6436.68 14934.3 6447.31 14870.5 6455.82C14811 6468.57 14759.9 6474.95 14717.4 6474.95C14470.8 6474.95 14273 6428.18 14124.2 6334.63C13979.6 6236.83 13869.1 6115.64 13792.5 5971.06L13652.2 6092.25C13511.9 6219.82 13356.6 6315.49 13186.5 6379.28C13016.5 6443.06 12854.9 6474.95 12701.8 6474.95ZM13033.5 5690.41C13101.5 5690.41 13175.9 5679.78 13256.7 5658.52C13341.8 5633.01 13424.7 5594.73 13505.5 5543.71L13633.1 5473.55V4905.87L12969.7 5090.84C12854.9 5120.61 12776.2 5163.13 12733.7 5218.41C12691.1 5269.44 12669.9 5331.09 12669.9 5403.38C12669.9 5496.93 12701.8 5569.22 12765.6 5620.25C12833.6 5667.02 12922.9 5690.41 13033.5 5690.41ZM15560.2 6423.92V3132.68H16644.5V6423.92H15560.2ZM16102.4 2673.43C15983.3 2673.43 15870.6 2643.67 15764.3 2584.14C15662.2 2524.6 15581.4 2445.94 15521.9 2348.14C15462.4 2250.33 15432.6 2144.03 15432.6 2029.22C15432.6 1910.15 15462.4 1803.85 15521.9 1710.3C15581.4 1612.5 15662.2 1533.83 15764.3 1474.3C15870.6 1414.77 15983.3 1385 16102.4 1385C16225.7 1385 16338.4 1414.77 16440.4 1474.3C16542.5 1533.83 16623.3 1612.5 16682.8 1710.3C16742.3 1803.85 16772.1 1910.15 16772.1 2029.22C16772.1 2144.03 16742.3 2250.33 16682.8 2348.14C16623.3 2445.94 16542.5 2524.6 16440.4 2584.14C16338.4 2643.67 16225.7 2673.43 16102.4 2673.43Z" fill="white"/>
</svg>
