<svg width="1118" height="559" viewBox="0 0 1118 559" fill="none" xmlns="http://www.w3.org/2000/svg">
<rect width="1118" height="559" fill="url(#paint0_radial_1474_23)"/>
<path d="M321.96 217H350.52V224.8H331.14V234.52H348.96V242.38H331.14V259H321.96V217ZM360.542 225.7C359.222 225.7 358.082 225.22 357.122 224.26C356.162 223.3 355.682 222.16 355.682 220.84C355.682 219.52 356.162 218.38 357.122 217.42C358.082 216.46 359.222 215.98 360.542 215.98C361.902 215.98 363.042 216.46 363.962 217.42C364.922 218.38 365.402 219.52 365.402 220.84C365.402 222.16 364.922 223.3 363.962 224.26C363.042 225.22 361.902 225.7 360.542 225.7ZM356.342 229H364.742V259H356.342V229ZM371.876 229H380.276V232.9C383.116 229.9 386.436 228.4 390.236 228.4C393.476 228.4 396.016 229.34 397.856 231.22C399.696 233.1 400.616 235.52 400.616 238.48V259H392.216V240.94C392.216 239.18 391.796 237.86 390.956 236.98C390.156 236.06 388.956 235.6 387.356 235.6C385.956 235.6 384.616 236.04 383.336 236.92C382.056 237.76 381.036 238.82 380.276 240.1V259H371.876V229ZM420.634 259.6C418.274 259.6 415.994 259.02 413.794 257.86C411.594 256.66 409.774 254.88 408.334 252.52C406.934 250.16 406.234 247.32 406.234 244C406.234 240.64 406.934 237.8 408.334 235.48C409.734 233.12 411.574 231.36 413.854 230.2C416.134 229 418.554 228.4 421.114 228.4C424.474 228.4 427.414 229.42 429.934 231.46V215.2H438.334V259H429.934V255.88C427.614 258.36 424.514 259.6 420.634 259.6ZM422.614 252.64C424.694 252.64 426.434 252 427.834 250.72C429.234 249.4 429.934 247.64 429.934 245.44V242.56C429.934 240.4 429.214 238.66 427.774 237.34C426.374 236.02 424.634 235.36 422.554 235.36C420.234 235.36 418.354 236.12 416.914 237.64C415.474 239.16 414.754 241.28 414.754 244C414.754 246.72 415.474 248.84 416.914 250.36C418.394 251.88 420.294 252.64 422.614 252.64ZM476.361 259.6C472.441 259.6 469.241 258.32 466.761 255.76V259H458.361V215.2H466.761V231.88C469.441 229.56 472.581 228.4 476.181 228.4C478.701 228.4 481.041 228.98 483.201 230.14C485.401 231.3 487.161 233.06 488.481 235.42C489.801 237.78 490.461 240.64 490.461 244C490.461 247.36 489.761 250.22 488.361 252.58C487.001 254.9 485.241 256.66 483.081 257.86C480.921 259.02 478.681 259.6 476.361 259.6ZM474.081 252.64C476.401 252.64 478.281 251.88 479.721 250.36C481.201 248.84 481.941 246.72 481.941 244C481.941 241.28 481.221 239.16 479.781 237.64C478.341 236.12 476.481 235.36 474.201 235.36C472.081 235.36 470.301 236.02 468.861 237.34C467.461 238.66 466.761 240.4 466.761 242.56V245.44C466.761 247.6 467.481 249.34 468.921 250.66C470.361 251.98 472.081 252.64 474.081 252.64ZM506.649 259.6C503.369 259.6 500.789 258.62 498.909 256.66C497.029 254.7 496.089 252.08 496.089 248.8V229H504.489V247.06C504.489 248.78 504.929 250.1 505.809 251.02C506.689 251.94 507.929 252.4 509.529 252.4C510.969 252.4 512.289 252 513.489 251.2C514.689 250.36 515.669 249.26 516.429 247.9V229H524.829V259H516.429V255.28C513.749 258.16 510.489 259.6 506.649 259.6ZM546.407 271.6C542.327 271.6 539.087 270.72 536.687 268.96C534.327 267.2 532.847 265.06 532.247 262.54L532.907 261.88L540.527 261.04C541.287 263.64 543.327 264.94 546.647 264.94C548.847 264.94 550.547 264.34 551.747 263.14C552.947 261.94 553.547 260.26 553.547 258.1V255.94C552.307 257.02 551.067 257.8 549.827 258.28C548.587 258.76 547.007 259 545.087 259C542.487 259 540.087 258.38 537.887 257.14C535.687 255.9 533.927 254.12 532.607 251.8C531.327 249.48 530.687 246.78 530.687 243.7C530.687 240.62 531.347 237.92 532.667 235.6C534.027 233.28 535.807 231.5 538.007 230.26C540.247 229.02 542.627 228.4 545.147 228.4C548.507 228.4 551.307 229.48 553.547 231.64V229H561.527V257.8C561.527 262.16 560.207 265.54 557.567 267.94C554.967 270.38 551.247 271.6 546.407 271.6ZM546.407 252.28C548.567 252.28 550.287 251.64 551.567 250.36C552.887 249.08 553.547 247.4 553.547 245.32V242.14C553.547 240.02 552.867 238.32 551.507 237.04C550.147 235.76 548.447 235.12 546.407 235.12C544.167 235.12 542.307 235.82 540.827 237.22C539.387 238.62 538.667 240.78 538.667 243.7C538.667 246.62 539.387 248.78 540.827 250.18C542.307 251.58 544.167 252.28 546.407 252.28ZM580.086 259.6C576.566 259.6 573.686 258.84 571.446 257.32C569.206 255.76 567.706 253.58 566.946 250.78L567.186 250L573.606 248.08C574.326 251.44 576.486 253.12 580.086 253.12C581.326 253.12 582.346 252.86 583.146 252.34C583.946 251.82 584.346 251.1 584.346 250.18C584.346 249.22 583.886 248.48 582.966 247.96C582.086 247.4 580.346 246.78 577.746 246.1C574.586 245.34 572.206 244.24 570.606 242.8C569.006 241.32 568.206 239.38 568.206 236.98C568.206 235.38 568.646 233.94 569.526 232.66C570.446 231.34 571.726 230.3 573.366 229.54C575.006 228.78 576.886 228.4 579.006 228.4C582.166 228.4 584.746 229.1 586.746 230.5C588.786 231.86 590.106 233.8 590.706 236.32L590.346 236.98L583.986 238.54C583.706 237.14 583.106 236.08 582.186 235.36C581.266 234.6 580.146 234.22 578.826 234.22C577.826 234.22 576.986 234.44 576.306 234.88C575.626 235.28 575.286 235.84 575.286 236.56C575.286 237.44 575.846 238.16 576.966 238.72C578.086 239.28 580.126 239.96 583.086 240.76C586.166 241.6 588.426 242.7 589.866 244.06C591.346 245.42 592.086 247.3 592.086 249.7C592.086 251.54 591.586 253.22 590.586 254.74C589.626 256.26 588.226 257.46 586.386 258.34C584.586 259.18 582.486 259.6 580.086 259.6ZM628.47 259.6C624.55 259.6 621.35 258.32 618.87 255.76V259H610.47V215.2H618.87V231.88C621.55 229.56 624.69 228.4 628.29 228.4C630.81 228.4 633.15 228.98 635.31 230.14C637.51 231.3 639.27 233.06 640.59 235.42C641.91 237.78 642.57 240.64 642.57 244C642.57 247.36 641.87 250.22 640.47 252.58C639.11 254.9 637.35 256.66 635.19 257.86C633.03 259.02 630.79 259.6 628.47 259.6ZM626.19 252.64C628.51 252.64 630.39 251.88 631.83 250.36C633.31 248.84 634.05 246.72 634.05 244C634.05 241.28 633.33 239.16 631.89 237.64C630.45 236.12 628.59 235.36 626.31 235.36C624.19 235.36 622.41 236.02 620.97 237.34C619.57 238.66 618.87 240.4 618.87 242.56V245.44C618.87 247.6 619.59 249.34 621.03 250.66C622.47 251.98 624.19 252.64 626.19 252.64ZM662.299 259.6C659.339 259.6 656.679 258.96 654.319 257.68C651.999 256.36 650.179 254.52 648.859 252.16C647.539 249.8 646.879 247.08 646.879 244C646.879 240.96 647.579 238.26 648.979 235.9C650.419 233.54 652.319 231.7 654.679 230.38C657.039 229.06 659.579 228.4 662.299 228.4C665.259 228.4 667.879 229.02 670.159 230.26C672.439 231.5 674.199 233.28 675.439 235.6C676.719 237.92 677.359 240.66 677.359 243.82V246.04H654.799C654.999 248.12 655.779 249.78 657.139 251.02C658.539 252.22 660.319 252.82 662.479 252.82C665.919 252.82 668.199 251.28 669.319 248.2L676.339 248.92L676.759 249.64C675.639 252.96 673.839 255.46 671.359 257.14C668.919 258.78 665.899 259.6 662.299 259.6ZM669.439 240.64C669.239 238.84 668.479 237.4 667.159 236.32C665.839 235.24 664.199 234.7 662.239 234.7C660.479 234.7 658.919 235.24 657.559 236.32C656.239 237.4 655.399 238.84 655.039 240.64H669.439ZM685.246 235.96H680.206V229H685.246V224.08C685.246 220.92 686.226 218.56 688.186 217C690.186 215.4 692.646 214.6 695.566 214.6C697.086 214.6 698.506 214.8 699.826 215.2V221.68L699.406 221.98C698.526 221.62 697.626 221.44 696.706 221.44C695.746 221.44 694.986 221.7 694.426 222.22C693.866 222.74 693.586 223.52 693.586 224.56V229H699.766V235.96H693.586V259H685.246V235.96ZM718.98 259.6C715.86 259.6 713.06 258.92 710.58 257.56C708.1 256.2 706.16 254.34 704.76 251.98C703.36 249.62 702.66 246.96 702.66 244C702.66 241.04 703.36 238.38 704.76 236.02C706.16 233.66 708.1 231.8 710.58 230.44C713.06 229.08 715.86 228.4 718.98 228.4C722.14 228.4 724.96 229.08 727.44 230.44C729.92 231.8 731.86 233.66 733.26 236.02C734.66 238.38 735.36 241.04 735.36 244C735.36 246.96 734.66 249.62 733.26 251.98C731.86 254.34 729.92 256.2 727.44 257.56C724.96 258.92 722.14 259.6 718.98 259.6ZM718.98 252.34C721.3 252.34 723.2 251.6 724.68 250.12C726.2 248.6 726.96 246.56 726.96 244C726.96 241.44 726.2 239.42 724.68 237.94C723.2 236.42 721.3 235.66 718.98 235.66C716.66 235.66 714.76 236.42 713.28 237.94C711.8 239.42 711.06 241.44 711.06 244C711.06 246.56 711.8 248.6 713.28 250.12C714.76 251.6 716.66 252.34 718.98 252.34ZM741.251 229H749.651V232.6C750.731 231.32 751.971 230.3 753.371 229.54C754.771 228.78 756.311 228.4 757.991 228.4C759.191 228.4 760.151 228.56 760.871 228.88L759.791 235.48L759.371 235.9C758.571 235.7 757.891 235.6 757.331 235.6C755.691 235.6 754.211 236.06 752.891 236.98C751.571 237.9 750.491 239.24 749.651 241V259H741.251V229ZM778.666 259.6C775.706 259.6 773.046 258.96 770.686 257.68C768.366 256.36 766.546 254.52 765.226 252.16C763.906 249.8 763.246 247.08 763.246 244C763.246 240.96 763.946 238.26 765.346 235.9C766.786 233.54 768.686 231.7 771.046 230.38C773.406 229.06 775.946 228.4 778.666 228.4C781.626 228.4 784.246 229.02 786.526 230.26C788.806 231.5 790.566 233.28 791.806 235.6C793.086 237.92 793.726 240.66 793.726 243.82V246.04H771.166C771.366 248.12 772.146 249.78 773.506 251.02C774.906 252.22 776.686 252.82 778.846 252.82C782.286 252.82 784.566 251.28 785.686 248.2L792.706 248.92L793.126 249.64C792.006 252.96 790.206 255.46 787.726 257.14C785.286 258.78 782.266 259.6 778.666 259.6ZM785.806 240.64C785.606 238.84 784.846 237.4 783.526 236.32C782.206 235.24 780.566 234.7 778.606 234.7C776.846 234.7 775.286 235.24 773.926 236.32C772.606 237.4 771.766 238.84 771.406 240.64H785.806ZM331.44 335.22L319.08 306H328.68L334.8 320.94L335.1 325.32H335.58L343.2 306H352.08L335.04 348H326.28L331.44 335.22ZM370.054 336.6C366.934 336.6 364.134 335.92 361.654 334.56C359.174 333.2 357.234 331.34 355.834 328.98C354.434 326.62 353.734 323.96 353.734 321C353.734 318.04 354.434 315.38 355.834 313.02C357.234 310.66 359.174 308.8 361.654 307.44C364.134 306.08 366.934 305.4 370.054 305.4C373.214 305.4 376.034 306.08 378.514 307.44C380.994 308.8 382.934 310.66 384.334 313.02C385.734 315.38 386.434 318.04 386.434 321C386.434 323.96 385.734 326.62 384.334 328.98C382.934 331.34 380.994 333.2 378.514 334.56C376.034 335.92 373.214 336.6 370.054 336.6ZM370.054 329.34C372.374 329.34 374.274 328.6 375.754 327.12C377.274 325.6 378.034 323.56 378.034 321C378.034 318.44 377.274 316.42 375.754 314.94C374.274 313.42 372.374 312.66 370.054 312.66C367.734 312.66 365.834 313.42 364.354 314.94C362.874 316.42 362.134 318.44 362.134 321C362.134 323.56 362.874 325.6 364.354 327.12C365.834 328.6 367.734 329.34 370.054 329.34ZM402.645 336.6C399.365 336.6 396.785 335.62 394.905 333.66C393.025 331.7 392.085 329.08 392.085 325.8V306H400.485V324.06C400.485 325.78 400.925 327.1 401.805 328.02C402.685 328.94 403.925 329.4 405.525 329.4C406.965 329.4 408.285 329 409.485 328.2C410.685 327.36 411.665 326.26 412.425 324.9V306H420.825V336H412.425V332.28C409.745 335.16 406.485 336.6 402.645 336.6ZM428.243 306H436.643V309.6C437.723 308.32 438.963 307.3 440.363 306.54C441.763 305.78 443.303 305.4 444.983 305.4C446.183 305.4 447.143 305.56 447.863 305.88L446.783 312.48L446.363 312.9C445.563 312.7 444.883 312.6 444.323 312.6C442.683 312.6 441.203 313.06 439.883 313.98C438.563 314.9 437.483 316.24 436.643 318V336H428.243V306ZM476.181 336.6C472.901 336.6 470.321 335.62 468.441 333.66C466.561 331.7 465.621 329.08 465.621 325.8V306H474.021V324.06C474.021 325.78 474.461 327.1 475.341 328.02C476.221 328.94 477.461 329.4 479.061 329.4C480.501 329.4 481.821 329 483.021 328.2C484.221 327.36 485.201 326.26 485.961 324.9V306H494.361V336H485.961V332.28C483.281 335.16 480.021 336.6 476.181 336.6ZM512.879 336.6C509.359 336.6 506.479 335.84 504.239 334.32C501.999 332.76 500.499 330.58 499.739 327.78L499.979 327L506.399 325.08C507.119 328.44 509.279 330.12 512.879 330.12C514.119 330.12 515.139 329.86 515.939 329.34C516.739 328.82 517.139 328.1 517.139 327.18C517.139 326.22 516.679 325.48 515.759 324.96C514.879 324.4 513.139 323.78 510.539 323.1C507.379 322.34 504.999 321.24 503.399 319.8C501.799 318.32 500.999 316.38 500.999 313.98C500.999 312.38 501.439 310.94 502.319 309.66C503.239 308.34 504.519 307.3 506.159 306.54C507.799 305.78 509.679 305.4 511.799 305.4C514.959 305.4 517.539 306.1 519.539 307.5C521.579 308.86 522.899 310.8 523.499 313.32L523.139 313.98L516.779 315.54C516.499 314.14 515.899 313.08 514.979 312.36C514.059 311.6 512.939 311.22 511.619 311.22C510.619 311.22 509.779 311.44 509.099 311.88C508.419 312.28 508.079 312.84 508.079 313.56C508.079 314.44 508.639 315.16 509.759 315.72C510.879 316.28 512.919 316.96 515.879 317.76C518.959 318.6 521.219 319.7 522.659 321.06C524.139 322.42 524.879 324.3 524.879 326.7C524.879 328.54 524.379 330.22 523.379 331.74C522.419 333.26 521.019 334.46 519.179 335.34C517.379 336.18 515.279 336.6 512.879 336.6ZM544.525 336.6C541.565 336.6 538.905 335.96 536.545 334.68C534.225 333.36 532.405 331.52 531.085 329.16C529.765 326.8 529.105 324.08 529.105 321C529.105 317.96 529.805 315.26 531.205 312.9C532.645 310.54 534.545 308.7 536.905 307.38C539.265 306.06 541.805 305.4 544.525 305.4C547.485 305.4 550.105 306.02 552.385 307.26C554.665 308.5 556.425 310.28 557.665 312.6C558.945 314.92 559.585 317.66 559.585 320.82V323.04H537.025C537.225 325.12 538.005 326.78 539.365 328.02C540.765 329.22 542.545 329.82 544.705 329.82C548.145 329.82 550.425 328.28 551.545 325.2L558.565 325.92L558.985 326.64C557.865 329.96 556.065 332.46 553.585 334.14C551.145 335.78 548.125 336.6 544.525 336.6ZM551.665 317.64C551.465 315.84 550.705 314.4 549.385 313.32C548.065 312.24 546.425 311.7 544.465 311.7C542.705 311.7 541.145 312.24 539.785 313.32C538.465 314.4 537.625 315.84 537.265 317.64H551.665ZM565.236 306H573.636V309.6C574.716 308.32 575.956 307.3 577.356 306.54C578.756 305.78 580.296 305.4 581.976 305.4C583.176 305.4 584.136 305.56 584.856 305.88L583.776 312.48L583.356 312.9C582.556 312.7 581.876 312.6 581.316 312.6C579.676 312.6 578.196 313.06 576.876 313.98C575.556 314.9 574.476 316.24 573.636 318V336H565.236V306ZM600.418 336.6C596.898 336.6 594.018 335.84 591.778 334.32C589.538 332.76 588.038 330.58 587.278 327.78L587.518 327L593.938 325.08C594.658 328.44 596.818 330.12 600.418 330.12C601.658 330.12 602.678 329.86 603.478 329.34C604.278 328.82 604.678 328.1 604.678 327.18C604.678 326.22 604.218 325.48 603.298 324.96C602.418 324.4 600.678 323.78 598.078 323.1C594.918 322.34 592.538 321.24 590.938 319.8C589.338 318.32 588.538 316.38 588.538 313.98C588.538 312.38 588.978 310.94 589.858 309.66C590.778 308.34 592.058 307.3 593.698 306.54C595.338 305.78 597.218 305.4 599.338 305.4C602.498 305.4 605.078 306.1 607.078 307.5C609.118 308.86 610.438 310.8 611.038 313.32L610.678 313.98L604.318 315.54C604.038 314.14 603.438 313.08 602.518 312.36C601.598 311.6 600.478 311.22 599.158 311.22C598.158 311.22 597.318 311.44 596.638 311.88C595.958 312.28 595.618 312.84 595.618 313.56C595.618 314.44 596.178 315.16 597.298 315.72C598.418 316.28 600.458 316.96 603.418 317.76C606.498 318.6 608.758 319.7 610.198 321.06C611.678 322.42 612.418 324.3 612.418 326.7C612.418 328.54 611.918 330.22 610.918 331.74C609.958 333.26 608.558 334.46 606.718 335.34C604.918 336.18 602.818 336.6 600.418 336.6ZM643.642 336.6C641.282 336.6 639.002 336.02 636.802 334.86C634.602 333.66 632.782 331.88 631.342 329.52C629.942 327.16 629.242 324.32 629.242 321C629.242 317.64 629.942 314.8 631.342 312.48C632.742 310.12 634.582 308.36 636.862 307.2C639.142 306 641.562 305.4 644.122 305.4C647.482 305.4 650.422 306.42 652.942 308.46V292.2H661.342V336H652.942V332.88C650.622 335.36 647.522 336.6 643.642 336.6ZM645.622 329.64C647.702 329.64 649.442 329 650.842 327.72C652.242 326.4 652.942 324.64 652.942 322.44V319.56C652.942 317.4 652.222 315.66 650.782 314.34C649.382 313.02 647.642 312.36 645.562 312.36C643.242 312.36 641.362 313.12 639.922 314.64C638.482 316.16 637.762 318.28 637.762 321C637.762 323.72 638.482 325.84 639.922 327.36C641.402 328.88 643.302 329.64 645.622 329.64ZM683.531 336.6C680.411 336.6 677.611 335.92 675.131 334.56C672.651 333.2 670.711 331.34 669.311 328.98C667.911 326.62 667.211 323.96 667.211 321C667.211 318.04 667.911 315.38 669.311 313.02C670.711 310.66 672.651 308.8 675.131 307.44C677.611 306.08 680.411 305.4 683.531 305.4C686.691 305.4 689.511 306.08 691.991 307.44C694.471 308.8 696.411 310.66 697.811 313.02C699.211 315.38 699.911 318.04 699.911 321C699.911 323.96 699.211 326.62 697.811 328.98C696.411 331.34 694.471 333.2 691.991 334.56C689.511 335.92 686.691 336.6 683.531 336.6ZM683.531 329.34C685.851 329.34 687.751 328.6 689.231 327.12C690.751 325.6 691.511 323.56 691.511 321C691.511 318.44 690.751 316.42 689.231 314.94C687.751 313.42 685.851 312.66 683.531 312.66C681.211 312.66 679.311 313.42 677.831 314.94C676.351 316.42 675.611 318.44 675.611 321C675.611 323.56 676.351 325.6 677.831 327.12C679.311 328.6 681.211 329.34 683.531 329.34Z" fill="white"/>
<g clip-path="url(#clip0_1474_23)">
<path d="M729 299.406C729 296.42 731.418 294 734.4 294H777.6C780.582 294 783 296.42 783 299.406V335.626C783 338.612 780.582 341.032 777.6 341.032H734.4C731.418 341.032 729 338.612 729 335.626V299.406Z" fill="#121212"/>
<path fill-rule="evenodd" clip-rule="evenodd" d="M777.6 298.325H734.4C733.804 298.325 733.32 298.809 733.32 299.406V335.626C733.32 336.223 733.804 336.707 734.4 336.707H777.6C778.196 336.707 778.68 336.223 778.68 335.626V299.406C778.68 298.809 778.196 298.325 777.6 298.325ZM734.4 294C731.418 294 729 296.42 729 299.406V335.626C729 338.612 731.418 341.032 734.4 341.032H777.6C780.582 341.032 783 338.612 783 335.626V299.406C783 296.42 780.582 294 777.6 294H734.4Z" fill="white"/>
<path d="M765.18 324.815C767.864 324.815 770.04 321.547 770.04 317.517C770.04 313.486 767.864 310.219 765.18 310.219C762.496 310.219 760.32 313.486 760.32 317.517C760.32 321.547 762.496 324.815 765.18 324.815Z" fill="white"/>
<path d="M746.821 324.815C749.505 324.815 751.681 321.547 751.681 317.517C751.681 313.486 749.505 310.219 746.821 310.219C744.137 310.219 741.961 313.486 741.961 317.517C741.961 321.547 744.137 324.815 746.821 324.815Z" fill="white"/>
</g>
<defs>
<radialGradient id="paint0_radial_1474_23" cx="0" cy="0" r="1" gradientUnits="userSpaceOnUse" gradientTransform="translate(559 279.5) rotate(90) scale(219 438)">
<stop stop-color="#171716"/>
<stop offset="1" stop-color="#0F0F10"/>
</radialGradient>
<clipPath id="clip0_1474_23">
<rect width="54" height="47.0322" fill="white" transform="translate(729 294)"/>
</clipPath>
</defs>
</svg>
